<svg width="406" height="363" viewBox="0 0 406 363" fill="none" xmlns="http://www.w3.org/2000/svg">
<path d="M58.5669 69.3C58.5669 71.4467 57.6203 73.2667 55.7273 74.76C53.8342 76.2533 51.527 77 48.8057 77H9.76114C7.03985 77 4.73268 76.2533 2.8396 74.76C0.946535 73.2667 0 71.4467 0 69.3C0 67.1533 0.946535 65.3333 2.8396 63.84C4.73268 62.3467 7.03985 61.6 9.76114 61.6H29.2834C32.0047 61.6 34.3119 60.8533 36.205 59.36C38.098 57.8667 39.0446 56.0467 39.0446 53.9V7.7C39.0446 5.55333 39.9911 3.73333 41.8842 2.23999C43.7772 0.746663 46.0844 0 48.8057 0C51.527 0 53.8342 0.746663 55.7273 2.23999C57.6203 3.73333 58.5669 5.55333 58.5669 7.7V69.3Z" fill="white"/>
<path d="M115.82 69.3C115.82 71.4467 115.012 73.2667 113.396 74.76C111.78 76.2533 109.81 77 107.487 77H74.1536C71.8304 77 69.8607 76.2533 68.2446 74.76C66.6284 73.2667 65.8203 71.4467 65.8203 69.3V7.7C65.8203 5.55333 66.6284 3.73333 68.2446 2.23999C69.8607 0.746663 71.8304 0 74.1536 0H107.487C109.81 0 111.78 0.746663 113.396 2.23999C115.012 3.73333 115.82 5.55333 115.82 7.7V69.3ZM99.1536 53.9V23.1C99.1536 20.9533 98.3456 19.1333 96.7294 17.64C95.1132 16.1467 93.1435 15.4 90.8203 15.4C88.4971 15.4 86.5274 16.1467 84.9112 17.64C83.2951 19.1333 82.487 20.9533 82.487 23.1V53.9C82.487 56.0467 83.2951 57.8667 84.9112 59.36C86.5274 60.8533 88.4971 61.6 90.8203 61.6C93.1435 61.6 95.1132 60.8533 96.7294 59.36C98.3456 57.8667 99.1536 56.0467 99.1536 53.9Z" fill="white"/>
<path d="M142.596 69.3C142.596 71.4467 141.649 73.2667 139.756 74.76C137.863 76.2533 135.556 77 132.835 77C130.114 77 127.806 76.2533 125.913 74.76C124.02 73.2667 123.074 71.4467 123.074 69.3V7.7C123.074 5.55333 124.02 3.73333 125.913 2.23999C127.806 0.746663 130.114 0 132.835 0C135.556 0 137.863 0.746663 139.756 2.23999C141.649 3.73333 142.596 5.55333 142.596 7.7V69.3Z" fill="white"/>
<path d="M208.416 69.3C208.416 71.4467 207.47 73.2667 205.577 74.76C203.684 76.2533 201.377 77 198.655 77C195.934 77 193.627 76.2533 191.734 74.76C189.841 73.2667 188.894 71.4467 188.894 69.3V23.1C188.894 20.9533 187.948 19.1333 186.055 17.64C184.161 16.1467 181.854 15.4 179.133 15.4C176.412 15.4 174.105 16.1467 172.211 17.64C170.318 19.1333 169.372 20.9533 169.372 23.1V69.3C169.372 71.4467 168.425 73.2667 166.532 74.76C164.639 76.2533 162.332 77 159.611 77C156.889 77 154.582 76.2533 152.689 74.76C150.796 73.2667 149.85 71.4467 149.85 69.3V7.7C149.85 5.55333 150.796 3.73333 152.689 2.23999C154.582 0.746663 156.889 0 159.611 0H198.655C201.377 0 203.684 0.746663 205.577 2.23999C207.47 3.73333 208.416 5.55333 208.416 7.7V69.3Z" fill="white"/>
<path d="M294.016 7.7C294.016 9.84666 293.27 11.6667 291.776 13.16C290.283 14.6533 288.463 15.4 286.316 15.4H278.616C276.47 15.4 274.65 16.1467 273.156 17.64C271.663 19.1333 270.916 20.9533 270.916 23.1V69.3C270.916 71.4467 270.17 73.2667 268.676 74.76C267.183 76.2533 265.363 77 263.216 77C261.07 77 259.25 76.2533 257.756 74.76C256.263 73.2667 255.516 71.4467 255.516 69.3V23.1C255.516 20.9533 254.77 19.1333 253.276 17.64C251.783 16.1467 249.963 15.4 247.816 15.4H240.116C237.97 15.4 236.15 14.6533 234.656 13.16C233.163 11.6667 232.416 9.84666 232.416 7.7C232.416 5.55333 233.163 3.73333 234.656 2.23999C236.15 0.746663 237.97 0 240.116 0H255.516C257.663 0 259.483 0.746663 260.976 2.23999C262.47 3.73333 263.216 5.55333 263.216 7.7C263.216 5.55333 263.963 3.73333 265.456 2.23999C266.95 0.746663 268.77 0 270.916 0H286.316C288.463 0 290.283 0.746663 291.776 2.23999C293.27 3.73333 294.016 5.55333 294.016 7.7Z" fill="white"/>
<path d="M350.008 69.3C350.008 71.4467 349.262 73.2667 347.768 74.76C346.275 76.2533 344.455 77 342.308 77C340.162 77 338.342 76.2533 336.848 74.76C335.355 73.2667 334.608 71.4467 334.608 69.3V46.2H319.208V69.3C319.208 71.4467 318.462 73.2667 316.968 74.76C315.475 76.2533 313.655 77 311.508 77C309.362 77 307.542 76.2533 306.048 74.76C304.555 73.2667 303.808 71.4467 303.808 69.3V7.7C303.808 5.55333 304.555 3.73333 306.048 2.23999C307.542 0.746663 309.362 0 311.508 0C313.655 0 315.475 0.746663 316.968 2.23999C318.462 3.73333 319.208 5.55333 319.208 7.7V30.8H334.608V7.7C334.608 5.55333 335.355 3.73333 336.848 2.23999C338.342 0.746663 340.162 0 342.308 0C344.455 0 346.275 0.746663 347.768 2.23999C349.262 3.73333 350.008 5.55333 350.008 7.7V69.3Z" fill="white"/>
<path d="M406 69.3C406 71.4467 405.253 73.2667 403.76 74.76C402.267 76.2533 400.447 77 398.3 77H367.5C365.353 77 363.533 76.2533 362.04 74.76C360.547 73.2667 359.8 71.4467 359.8 69.3V46.2C359.8 44.0533 360.547 42.2333 362.04 40.74C363.533 39.2467 365.353 38.5 367.5 38.5C365.353 38.5 363.533 37.7533 362.04 36.26C360.547 34.7667 359.8 32.9467 359.8 30.8V7.7C359.8 5.55333 360.547 3.73333 362.04 2.23999C363.533 0.746663 365.353 0 367.5 0H398.3C400.447 0 402.267 0.746663 403.76 2.23999C405.253 3.73333 406 5.55333 406 7.7C406 9.84666 405.253 11.6667 403.76 13.16C402.267 14.6533 400.447 15.4 398.3 15.4H382.9C380.753 15.4 378.933 16.1467 377.44 17.64C375.947 19.1333 375.2 20.9533 375.2 23.1C375.2 25.2467 375.947 27.0667 377.44 28.56C378.933 30.0533 380.753 30.8 382.9 30.8H390.6C392.747 30.8 394.567 31.5467 396.06 33.04C397.553 34.5333 398.3 36.3533 398.3 38.5C398.3 40.6467 397.553 42.4667 396.06 43.96C394.567 45.4533 392.747 46.2 390.6 46.2H382.9C380.753 46.2 378.933 46.9467 377.44 48.44C375.947 49.9333 375.2 51.7533 375.2 53.9C375.2 56.0467 375.947 57.8667 377.44 59.36C378.933 60.8533 380.753 61.6 382.9 61.6H398.3C400.447 61.6 402.267 62.3467 403.76 63.84C405.253 65.3333 406 67.1533 406 69.3Z" fill="white"/>
<path d="M59.335 214.1C59.335 216.86 58.376 219.2 56.4581 221.12C54.5402 223.04 52.2028 224 49.4458 224H9.88916C7.13219 224 4.79475 223.04 2.87685 221.12C0.958949 219.2 0 216.86 0 214.1V134.9C0 132.14 0.958949 129.8 2.87685 127.88C4.79475 125.96 7.13219 125 9.88916 125H49.4458C52.2028 125 54.5402 125.96 56.4581 127.88C58.376 129.8 59.335 132.14 59.335 134.9V164.6C59.335 167.36 58.376 169.7 56.4581 171.62C54.5402 173.54 52.2028 174.5 49.4458 174.5C52.2028 174.5 54.5402 175.46 56.4581 177.38C58.376 179.3 59.335 181.64 59.335 184.4V214.1ZM39.5567 154.7C39.5567 151.94 38.5977 149.6 36.6798 147.68C34.7619 145.76 32.4245 144.8 29.6675 144.8C26.9105 144.8 24.5731 145.76 22.6552 147.68C20.7373 149.6 19.7783 151.94 19.7783 154.7V164.6H29.6675C32.4245 164.6 34.7619 163.64 36.6798 161.72C38.5977 159.8 39.5567 157.46 39.5567 154.7ZM39.5567 194.3C39.5567 191.54 38.5977 189.2 36.6798 187.28C34.7619 185.36 32.4245 184.4 29.6675 184.4H19.7783V194.3C19.7783 197.06 20.7373 199.4 22.6552 201.32C24.5731 203.24 26.9105 204.2 29.6675 204.2C32.4245 204.2 34.7619 203.24 36.6798 201.32C38.5977 199.4 39.5567 197.06 39.5567 194.3Z" fill="white"/>
<path d="M128.668 224H79.2222C76.4652 224 74.1278 223.04 72.2099 221.12C70.292 219.2 69.333 216.86 69.333 214.1V134.9C69.333 132.14 70.292 129.8 72.2099 127.88C74.1278 125.96 76.4652 125 79.2222 125C81.9792 125 84.3166 125.96 86.2345 127.88C88.1524 129.8 89.1113 132.14 89.1113 134.9V194.3C89.1113 197.06 90.0703 199.4 91.9882 201.32C93.9061 203.24 96.2435 204.2 99.0005 204.2H108.89V134.9C108.89 132.14 109.849 129.8 111.767 127.88C113.684 125.96 116.022 125 118.779 125C121.536 125 123.873 125.96 125.791 127.88C127.709 129.8 128.668 132.14 128.668 134.9V224Z" fill="white"/>
<path d="M198.001 214.1C198.001 216.86 197.042 219.2 195.124 221.12C193.206 223.04 190.869 224 188.112 224C185.355 224 183.017 223.04 181.1 221.12C179.182 219.2 178.223 216.86 178.223 214.1V194.3C178.223 191.54 177.264 189.2 175.346 187.28C173.428 185.36 171.09 184.4 168.334 184.4C165.577 184.4 163.239 185.36 161.321 187.28C159.403 189.2 158.444 191.54 158.444 194.3V214.1C158.444 216.86 157.485 219.2 155.567 221.12C153.65 223.04 151.312 224 148.555 224C145.798 224 143.461 223.04 141.543 221.12C139.625 219.2 138.666 216.86 138.666 214.1V134.9C138.666 132.14 139.625 129.8 141.543 127.88C143.461 125.96 145.798 125 148.555 125H188.112C190.869 125 193.206 125.96 195.124 127.88C197.042 129.8 198.001 132.14 198.001 134.9V164.6C198.001 167.36 197.042 169.7 195.124 171.62C193.206 173.54 190.869 174.5 188.112 174.5C190.869 174.5 193.206 175.46 195.124 177.38C197.042 179.3 198.001 181.64 198.001 184.4V214.1ZM178.223 154.7C178.223 151.94 177.264 149.6 175.346 147.68C173.428 145.76 171.09 144.8 168.334 144.8C165.577 144.8 163.239 145.76 161.321 147.68C159.403 149.6 158.444 151.94 158.444 154.7V164.6H168.334C171.09 164.6 173.428 163.64 175.346 161.72C177.264 159.8 178.223 157.46 178.223 154.7Z" fill="white"/>
<path d="M267.334 214.1C267.334 216.86 266.375 219.2 264.457 221.12C262.539 223.04 260.202 224 257.445 224H217.888C215.131 224 212.794 223.04 210.876 221.12C208.958 219.2 207.999 216.86 207.999 214.1V134.9C207.999 132.14 208.958 129.8 210.876 127.88C212.794 125.96 215.131 125 217.888 125H257.445C260.202 125 262.539 125.96 264.457 127.88C266.375 129.8 267.334 132.14 267.334 134.9C267.334 137.66 266.375 140 264.457 141.92C262.539 143.84 260.202 144.8 257.445 144.8H237.667C234.91 144.8 232.572 145.76 230.654 147.68C228.736 149.6 227.777 151.94 227.777 154.7V194.3C227.777 197.06 228.736 199.4 230.654 201.32C232.572 203.24 234.91 204.2 237.667 204.2C240.423 204.2 242.761 203.24 244.679 201.32C246.597 199.4 247.556 197.06 247.556 194.3V184.4C244.799 184.4 242.461 183.44 240.543 181.52C238.625 179.6 237.667 177.26 237.667 174.5C237.667 171.74 238.625 169.4 240.543 167.48C242.461 165.56 244.799 164.6 247.556 164.6H257.445C260.202 164.6 262.539 165.56 264.457 167.48C266.375 169.4 267.334 171.74 267.334 174.5V214.1Z" fill="white"/>
<path d="M336.667 214.1C336.667 216.86 335.708 219.2 333.79 221.12C331.872 223.04 329.535 224 326.778 224H287.221C284.464 224 282.127 223.04 280.209 221.12C278.291 219.2 277.332 216.86 277.332 214.1V184.4C277.332 181.64 278.291 179.3 280.209 177.38C282.127 175.46 284.464 174.5 287.221 174.5C284.464 174.5 282.127 173.54 280.209 171.62C278.291 169.7 277.332 167.36 277.332 164.6V134.9C277.332 132.14 278.291 129.8 280.209 127.88C282.127 125.96 284.464 125 287.221 125H326.778C329.535 125 331.872 125.96 333.79 127.88C335.708 129.8 336.667 132.14 336.667 134.9C336.667 137.66 335.708 140 333.79 141.92C331.872 143.84 329.535 144.8 326.778 144.8H307C304.243 144.8 301.905 145.76 299.987 147.68C298.069 149.6 297.11 151.94 297.11 154.7C297.11 157.46 298.069 159.8 299.987 161.72C301.905 163.64 304.243 164.6 307 164.6H316.889C319.646 164.6 321.983 165.56 323.901 167.48C325.819 169.4 326.778 171.74 326.778 174.5C326.778 177.26 325.819 179.6 323.901 181.52C321.983 183.44 319.646 184.4 316.889 184.4H307C304.243 184.4 301.905 185.36 299.987 187.28C298.069 189.2 297.11 191.54 297.11 194.3C297.11 197.06 298.069 199.4 299.987 201.32C301.905 203.24 304.243 204.2 307 204.2H326.778C329.535 204.2 331.872 205.16 333.79 207.08C335.708 209 336.667 211.34 336.667 214.1Z" fill="white"/>
<path d="M406 214.1C406 216.86 405.041 219.2 403.123 221.12C401.205 223.04 398.868 224 396.111 224C393.354 224 391.016 223.04 389.099 221.12C387.181 219.2 386.222 216.86 386.222 214.1V194.3C386.222 191.54 385.263 189.2 383.345 187.28C381.427 185.36 379.09 184.4 376.333 184.4C373.576 184.4 371.238 185.36 369.32 187.28C367.402 189.2 366.443 191.54 366.443 194.3V214.1C366.443 216.86 365.484 219.2 363.567 221.12C361.649 223.04 359.311 224 356.554 224C353.797 224 351.46 223.04 349.542 221.12C347.624 219.2 346.665 216.86 346.665 214.1V134.9C346.665 132.14 347.624 129.8 349.542 127.88C351.46 125.96 353.797 125 356.554 125H396.111C398.868 125 401.205 125.96 403.123 127.88C405.041 129.8 406 132.14 406 134.9V164.6C406 167.36 405.041 169.7 403.123 171.62C401.205 173.54 398.868 174.5 396.111 174.5C398.868 174.5 401.205 175.46 403.123 177.38C405.041 179.3 406 181.64 406 184.4V214.1ZM386.222 154.7C386.222 151.94 385.263 149.6 383.345 147.68C381.427 145.76 379.09 144.8 376.333 144.8C373.576 144.8 371.238 145.76 369.32 147.68C367.402 149.6 366.443 151.94 366.443 154.7V164.6H376.333C379.09 164.6 381.427 163.64 383.345 161.72C385.263 159.8 386.222 157.46 386.222 154.7Z" fill="white"/>
<path d="M34.8711 324.307C34.8711 325.927 34.3076 327.301 33.1804 328.428C32.0533 329.555 30.6796 330.119 29.0593 330.119C27.439 330.119 26.0653 329.555 24.9381 328.428C23.811 327.301 23.2474 325.927 23.2474 324.307V312.683C23.2474 311.063 22.6838 309.689 21.5567 308.562C20.4296 307.435 19.0558 306.871 17.4356 306.871C15.8153 306.871 14.4416 307.435 13.3144 308.562C12.1873 309.689 11.6237 311.063 11.6237 312.683V324.307C11.6237 325.927 11.0601 327.301 9.93299 328.428C8.80584 329.555 7.43213 330.119 5.81186 330.119C4.19158 330.119 2.81787 329.555 1.69072 328.428C0.563574 327.301 0 325.927 0 324.307V277.812C0 276.192 0.563574 274.818 1.69072 273.691C2.81787 272.564 4.19158 272 5.81186 272H29.0593C30.6796 272 32.0533 272.564 33.1804 273.691C34.3076 274.818 34.8711 276.192 34.8711 277.812V295.247C34.8711 296.868 34.3076 298.241 33.1804 299.369C32.0533 300.496 30.6796 301.059 29.0593 301.059C30.6796 301.059 32.0533 301.623 33.1804 302.75C34.3076 303.877 34.8711 305.251 34.8711 306.871V324.307ZM23.2474 289.436C23.2474 287.815 22.6838 286.442 21.5567 285.314C20.4296 284.187 19.0558 283.624 17.4356 283.624C15.8153 283.624 14.4416 284.187 13.3144 285.314C12.1873 286.442 11.6237 287.815 11.6237 289.436V295.247H17.4356C19.0558 295.247 20.4296 294.684 21.5567 293.557C22.6838 292.43 23.2474 291.056 23.2474 289.436Z" fill="white"/>
<path d="M77.3992 324.307C77.3992 325.927 76.8356 327.301 75.7085 328.428C74.5813 329.555 73.2076 330.119 71.5874 330.119H48.3399C46.7197 330.119 45.3459 329.555 44.2188 328.428C43.0917 327.301 42.5281 325.927 42.5281 324.307V306.871C42.5281 305.251 43.0917 303.877 44.2188 302.75C45.3459 301.623 46.7197 301.059 48.3399 301.059C46.7197 301.059 45.3459 300.496 44.2188 299.369C43.0917 298.241 42.5281 296.868 42.5281 295.247V277.812C42.5281 276.192 43.0917 274.818 44.2188 273.691C45.3459 272.564 46.7197 272 48.3399 272H71.5874C73.2076 272 74.5813 272.564 75.7085 273.691C76.8356 274.818 77.3992 276.192 77.3992 277.812C77.3992 279.432 76.8356 280.806 75.7085 281.933C74.5813 283.06 73.2076 283.624 71.5874 283.624H59.9636C58.3434 283.624 56.9697 284.187 55.8425 285.314C54.7154 286.442 54.1518 287.815 54.1518 289.436C54.1518 291.056 54.7154 292.43 55.8425 293.557C56.9697 294.684 58.3434 295.247 59.9636 295.247H65.7755C67.3958 295.247 68.7695 295.811 69.8966 296.938C71.0238 298.065 71.5874 299.439 71.5874 301.059C71.5874 302.68 71.0238 304.053 69.8966 305.18C68.7695 306.308 67.3958 306.871 65.7755 306.871H59.9636C58.3434 306.871 56.9697 307.435 55.8425 308.562C54.7154 309.689 54.1518 311.063 54.1518 312.683C54.1518 314.303 54.7154 315.677 55.8425 316.804C56.9697 317.931 58.3434 318.495 59.9636 318.495H71.5874C73.2076 318.495 74.5813 319.058 75.7085 320.186C76.8356 321.313 77.3992 322.686 77.3992 324.307Z" fill="white"/>
<path d="M119.927 324.307C119.927 325.927 119.364 327.301 118.237 328.428C117.109 329.555 115.736 330.119 114.115 330.119H90.868C89.2477 330.119 87.874 329.555 86.7469 328.428C85.6197 327.301 85.0562 325.927 85.0562 324.307V277.812C85.0562 276.192 85.6197 274.818 86.7469 273.691C87.874 272.564 89.2477 272 90.868 272C92.4883 272 93.862 272.564 94.9891 273.691C96.1163 274.818 96.6799 276.192 96.6799 277.812V312.683C96.6799 314.303 98.9424 315.677 100.07 316.804C101.197 317.931 100.949 319.038 102.57 319.038C104.19 319.038 103.942 317.931 105.07 316.804C106.197 315.677 108.304 314.303 108.304 312.683V277.812C108.304 276.192 108.867 274.818 109.994 273.691C111.121 272.564 112.495 272 114.115 272C115.736 272 117.109 272.564 118.237 273.691C119.364 274.818 119.927 276.192 119.927 277.812V324.307Z" fill="white"/>
<path d="M162.455 324.307C162.455 325.927 161.892 327.301 160.765 328.428C159.637 329.555 158.264 330.119 156.644 330.119H133.396C131.776 330.119 130.402 329.555 129.275 328.428C128.148 327.301 127.584 325.927 127.584 324.307V277.812C127.584 276.192 128.148 274.818 129.275 273.691C130.402 272.564 131.776 272 133.396 272H156.644C158.264 272 159.637 272.564 160.765 273.691C161.892 274.818 162.455 276.192 162.455 277.812V324.307ZM150.832 312.683V289.436C150.832 287.815 150.268 286.442 149.141 285.314C148.014 284.187 146.64 283.624 145.02 283.624C143.4 283.624 142.026 284.187 140.899 285.314C139.772 286.442 139.208 287.815 139.208 289.436V312.683C139.208 314.303 139.772 315.677 140.899 316.804C142.026 317.931 143.4 318.495 145.02 318.495C146.64 318.495 148.014 317.931 149.141 316.804C150.268 315.677 150.832 314.303 150.832 312.683Z" fill="white"/>
<path d="M204.983 324.307C204.983 325.927 204.42 327.301 203.293 328.428C202.166 329.555 200.792 330.119 199.172 330.119H175.924C174.304 330.119 172.93 329.555 171.803 328.428C170.676 327.301 170.112 325.927 170.112 324.307V277.812C170.112 276.192 170.676 274.818 171.803 273.691C172.93 272.564 174.304 272 175.924 272C177.544 272 178.918 272.564 180.045 273.691C181.172 274.818 181.736 276.192 181.736 277.812V312.683C181.736 314.303 182.3 315.677 183.427 316.804C184.554 317.931 185.928 318.495 187.548 318.495H199.172C200.792 318.495 202.166 319.058 203.293 320.186C204.42 321.313 204.983 322.686 204.983 324.307Z" fill="white"/>
<path d="M247.512 330.119H218.452C216.832 330.119 215.458 329.555 214.331 328.428C213.204 327.301 212.64 325.927 212.64 324.307V277.812C212.64 276.192 213.204 274.818 214.331 273.691C215.458 272.564 216.832 272 218.452 272C220.073 272 221.446 272.564 222.573 273.691C223.701 274.818 224.264 276.192 224.264 277.812V312.683C224.264 314.303 224.828 315.677 225.955 316.804C227.082 317.931 228.456 318.495 230.076 318.495H235.888V277.812C235.888 276.192 236.451 274.818 237.579 273.691C238.706 272.564 240.079 272 241.7 272C243.32 272 244.694 272.564 245.821 273.691C246.948 274.818 247.512 276.192 247.512 277.812V330.119Z" fill="white"/>
<path d="M301.663 277.812C301.663 279.432 301.1 280.806 299.973 281.933C298.845 283.06 297.472 283.624 295.851 283.624H290.04C288.419 283.624 287.046 284.187 285.918 285.314C284.791 286.442 284.228 287.815 284.228 289.436V324.307C284.228 325.927 283.664 327.301 282.537 328.428C281.41 329.555 280.036 330.119 278.416 330.119C276.796 330.119 275.422 329.555 274.295 328.428C273.168 327.301 272.604 325.927 272.604 324.307V289.436C272.604 287.815 272.04 286.442 270.913 285.314C269.786 284.187 268.412 283.624 266.792 283.624H260.98C259.36 283.624 257.986 283.06 256.859 281.933C255.732 280.806 255.168 279.432 255.168 277.812C255.168 276.192 255.732 274.818 256.859 273.691C257.986 272.564 259.36 272 260.98 272H272.604C274.224 272 275.598 272.564 276.725 273.691C277.852 274.818 278.416 276.192 278.416 277.812C278.416 276.192 278.979 274.818 280.107 273.691C281.234 272.564 282.607 272 284.228 272H295.851C297.472 272 298.845 272.564 299.973 273.691C301.1 274.818 301.663 276.192 301.663 277.812Z" fill="white"/>
<path d="M320.944 324.307C320.944 325.927 320.38 327.301 319.253 328.428C318.126 329.555 316.752 330.119 315.132 330.119C313.512 330.119 312.138 329.555 311.011 328.428C309.884 327.301 309.32 325.927 309.32 324.307V277.812C309.32 276.192 309.884 274.818 311.011 273.691C312.138 272.564 313.512 272 315.132 272C316.752 272 318.126 272.564 319.253 273.691C320.38 274.818 320.944 276.192 320.944 277.812V324.307Z" fill="white"/>
<path d="M363.472 324.307C363.472 325.927 362.908 327.301 361.781 328.428C360.654 329.555 359.28 330.119 357.66 330.119H334.413C332.792 330.119 331.419 329.555 330.292 328.428C329.164 327.301 328.601 325.927 328.601 324.307V277.812C328.601 276.192 329.164 274.818 330.292 273.691C331.419 272.564 332.792 272 334.413 272H357.66C359.28 272 360.654 272.564 361.781 273.691C362.908 274.818 363.472 276.192 363.472 277.812V324.307ZM351.848 312.683V289.436C351.848 287.815 351.285 286.442 350.158 285.314C349.03 284.187 347.657 283.624 346.036 283.624C344.416 283.624 343.042 284.187 341.915 285.314C340.788 286.442 340.225 287.815 340.225 289.436V312.683C340.225 314.303 340.788 315.677 341.915 316.804C343.042 317.931 344.416 318.495 346.036 318.495C347.657 318.495 349.03 317.931 350.158 316.804C351.285 315.677 351.848 314.303 351.848 312.683Z" fill="white"/>
<path d="M406 324.307C406 325.927 405.436 327.301 404.309 328.428C403.182 329.555 401.808 330.119 400.188 330.119C398.568 330.119 397.194 329.555 396.067 328.428C394.94 327.301 394.376 325.927 394.376 324.307V289.436C394.376 287.815 393.813 286.442 392.686 285.314C391.558 284.187 390.185 283.624 388.564 283.624C386.944 283.624 385.57 284.187 384.443 285.314C383.316 286.442 382.753 287.815 382.753 289.436V324.307C382.753 325.927 382.189 327.301 381.062 328.428C379.935 329.555 378.561 330.119 376.941 330.119C375.32 330.119 373.947 329.555 372.82 328.428C371.692 327.301 371.129 325.927 371.129 324.307V277.812C371.129 276.192 371.692 274.818 372.82 273.691C373.947 272.564 375.32 272 376.941 272H400.188C401.808 272 403.182 272.564 404.309 273.691C405.436 274.818 406 276.192 406 277.812V324.307Z" fill="white"/>
</svg>
