<?xml version="1.0" standalone="no"?>
<!DOCTYPE svg PUBLIC "-//W3C//DTD SVG 20010904//EN"
 "http://www.w3.org/TR/2001/REC-SVG-20010904/DTD/svg10.dtd">
<svg version="1.0" xmlns="http://www.w3.org/2000/svg"
 width="1080.000000pt" height="1080.000000pt" viewBox="0 0 1080.000000 1080.000000"
 preserveAspectRatio="xMidYMid meet">
<metadata>
Created by potrace 1.14, written by Peter Selinger 2001-2017
</metadata>
<g transform="translate(0.000000,1080.000000) scale(0.100000,-0.100000)"
fill="#000000" stroke="none">
<path d="M2170 10360 c0 -3 -13 -68 -29 -145 -16 -77 -32 -153 -34 -170 -23
-135 -138 -689 -150 -716 -44 -106 -193 -197 -237 -144 -12 14 -11 25 5 105 3
14 15 75 26 135 12 61 22 115 24 120 2 12 16 83 20 105 28 146 39 197 46 204
5 6 33 9 63 8 l54 -1 23 52 c13 29 25 55 27 60 2 4 -30 7 -72 7 -42 0 -76 2
-76 4 0 8 41 222 50 260 l8 38 -36 -6 c-20 -3 -48 -8 -62 -11 -79 -16 -96 -19
-102 -21 -5 -1 -16 -2 -25 -3 -36 -3 -45 -20 -69 -136 -13 -65 -24 -119 -24
-121 0 -1 -21 -4 -46 -6 -46 -3 -46 -3 -69 -60 l-23 -57 54 2 c44 2 54 0 54
-13 0 -9 -23 -128 -50 -266 -79 -390 -74 -474 37 -552 68 -48 204 -26 311 51
l53 38 -6 -43 c-4 -23 -9 -46 -11 -50 -3 -5 53 -8 125 -8 127 0 131 1 136 23
3 12 21 105 40 207 52 268 71 361 84 392 37 94 213 203 234 145 2 -7 -6 -66
-19 -132 -12 -66 -25 -138 -28 -160 -7 -47 -23 -137 -32 -180 -11 -58 -12
-136 -1 -172 17 -54 73 -109 127 -123 96 -26 229 14 320 96 22 20 40 31 40 25
0 -7 20 -32 44 -55 53 -52 124 -79 216 -81 148 -3 273 48 376 150 51 52 134
168 134 189 0 3 -31 6 -69 6 -66 0 -70 -1 -93 -33 -64 -83 -146 -139 -240
-165 -78 -21 -157 67 -175 193 -4 34 -2 45 8 46 118 7 169 18 227 51 97 54
157 127 186 226 19 66 14 170 -10 209 -53 85 -103 113 -200 110 -245 -8 -453
-287 -459 -616 l-1 -94 -48 -43 c-53 -49 -112 -67 -130 -41 -9 11 -2 74 30
263 47 276 50 353 16 425 -41 87 -92 121 -182 121 -59 0 -140 -31 -185 -71
-39 -35 -48 -36 -41 -5 4 16 8 40 11 54 3 14 9 48 15 75 5 28 12 64 15 80 2
17 13 73 24 125 11 52 17 97 14 100 -6 7 -243 7 -243 0z m1242 -488 c13 -13
12 -101 -2 -152 -26 -98 -83 -175 -153 -208 -48 -22 -124 -36 -132 -23 -9 15
43 176 76 238 65 121 166 190 211 145z"/>
<path d="M1908 8666 c-292 -68 -514 -240 -613 -476 -54 -127 -53 -117 -50
-1180 2 -542 4 -1460 6 -2040 2 -969 3 -1062 20 -1143 17 -83 77 -225 106
-249 7 -6 13 -16 13 -22 0 -23 168 -172 246 -217 43 -26 118 -61 165 -77 84
-30 107 -35 199 -49 58 -9 2081 -9 2180 0 293 25 577 203 693 432 44 88 55
118 69 189 12 58 14 403 13 2120 -1 1128 -5 2069 -9 2091 -42 220 -202 426
-419 536 -66 34 -146 67 -179 73 -13 2 -54 11 -93 20 -61 13 -218 15 -1160 15
l-1090 -1 -97 -22z m1477 -1499 c53 -19 103 -57 132 -100 27 -41 28 -46 27
-162 0 -66 -4 -163 -8 -215 -9 -124 -14 -187 -21 -290 -3 -47 -7 -110 -10
-140 -2 -30 -7 -98 -10 -150 -4 -52 -8 -117 -10 -145 -3 -27 -7 -93 -11 -145
-4 -52 -8 -108 -9 -125 -1 -16 -5 -79 -9 -140 -4 -60 -9 -126 -11 -145 -2 -19
-7 -87 -10 -150 -4 -63 -8 -128 -10 -145 -1 -16 -5 -77 -9 -135 -14 -218 -29
-266 -96 -321 -63 -52 -115 -62 -323 -64 -222 -1 -276 10 -338 71 -80 78 -73
-20 -76 1179 -1 791 2 1082 10 1115 16 61 86 132 153 153 48 16 79 21 179 32
28 3 86 10 130 15 44 6 109 13 145 16 36 4 66 8 68 9 6 6 88 -7 117 -18z"/>
<path d="M5928 8675 c-106 -29 -203 -96 -254 -176 -53 -85 -51 58 -49 -2569
l1 -2435 26 -56 c49 -108 167 -196 299 -223 40 -8 468 -11 1555 -11 l1499 1
67 23 c98 33 167 85 222 167 51 79 51 78 61 539 4 182 8 400 10 485 2 85 6
292 9 460 4 168 9 393 11 500 15 612 15 736 -1 790 -21 70 -52 117 -110 169
-43 37 -65 50 -139 81 -74 32 -183 33 -328 4 -45 -8 -93 -17 -107 -19 -23 -3
-222 -39 -280 -50 -14 -3 -38 -7 -55 -10 -16 -3 -41 -7 -55 -10 -14 -3 -41 -7
-60 -10 -211 -33 -309 -78 -391 -181 -54 -68 -71 -135 -67 -264 3 -101 6 -122
30 -170 41 -83 89 -129 203 -196 100 -58 174 -158 190 -259 3 -22 8 -96 10
-165 6 -207 -40 -345 -151 -456 -104 -102 -195 -133 -544 -184 -158 -23 -334
46 -418 163 -69 97 -65 8 -66 1292 -1 638 2 1180 6 1204 19 106 106 207 225
264 65 30 74 32 188 32 104 0 202 -7 295 -20 14 -2 59 -6 100 -10 41 -4 89 -8
105 -10 17 -2 62 -6 100 -9 39 -4 84 -9 100 -11 17 -2 59 -7 95 -10 36 -3 83
-8 105 -10 22 -2 67 -7 100 -10 33 -3 78 -7 100 -10 22 -2 69 -6 105 -10 36
-3 88 -9 115 -12 87 -11 188 -10 240 2 119 28 234 115 282 214 l28 56 0 425 0
425 -28 57 c-50 102 -143 176 -265 210 -63 17 -144 18 -1567 17 -1190 -1
-1510 -4 -1547 -14z"/>
<path d="M1462 2863 c-12 -3 -32 -18 -45 -35 l-22 -30 -1 -1151 c-1 -924 2
-1159 12 -1185 24 -59 29 -60 544 -58 431 1 468 2 493 19 16 10 32 29 37 43 6
15 10 252 10 580 0 621 5 579 -75 653 -26 24 -45 44 -43 46 2 1 26 14 55 29
28 14 54 29 57 34 3 5 8 228 11 496 5 450 4 489 -12 516 -9 16 -29 34 -43 39
-25 8 -930 12 -978 4z m558 -663 l0 -370 -27 -1 c-51 -2 -145 1 -152 5 -5 3
-7 696 -2 729 1 4 42 7 91 7 l90 0 0 -370z m0 -1084 l0 -414 -92 2 -93 1 0
405 c-1 223 1 408 3 413 2 4 43 7 93 7 l89 0 0 -414z"/>
<path d="M2903 2855 c-17 -7 -37 -24 -44 -37 -10 -18 -12 -276 -12 -1183 0
-1088 1 -1162 17 -1187 10 -15 32 -31 49 -37 41 -12 1010 -11 1054 1 70 19 66
-56 65 1222 0 812 -3 1159 -11 1179 -18 46 -58 56 -236 55 -173 0 -202 -7
-223 -52 -8 -19 -13 -264 -18 -904 -4 -482 -7 -902 -8 -932 -1 -55 -1 -55 -46
-79 -59 -31 -109 -24 -140 19 -20 28 -20 36 -19 787 0 417 1 833 1 924 0 238
3 236 -242 237 -110 0 -164 -3 -187 -13z"/>
<path d="M4423 2850 c-17 -10 -35 -31 -40 -47 -11 -33 -11 -2307 0 -2340 16
-45 52 -56 188 -58 148 -1 181 6 205 42 16 26 18 59 18 421 l0 393 50 -3 c34
-2 50 -8 52 -18 2 -8 22 -80 44 -160 23 -80 48 -170 56 -200 8 -30 29 -102 46
-160 16 -58 31 -112 33 -120 2 -8 13 -48 25 -88 31 -102 40 -106 204 -107 147
-1 174 6 198 55 19 39 24 18 -102 455 -56 193 -103 357 -104 365 -3 12 9 15
61 16 58 2 68 5 95 32 l31 30 2 704 c2 432 -1 715 -7 735 -5 18 -21 41 -36 52
-26 18 -51 19 -508 19 -450 1 -483 0 -511 -18z m541 -431 c30 -35 29 -18 26
-585 l0 -110 -50 -23 c-70 -32 -122 -12 -135 51 -6 24 -9 450 -6 628 1 31 6
37 39 52 60 26 96 23 126 -13z"/>
<path d="M5861 2861 c-13 -4 -34 -19 -45 -34 l-21 -28 -1 -1155 c0 -913 3
-1161 13 -1184 23 -57 30 -58 571 -56 l494 1 29 33 29 32 0 388 0 388 -31 30
-30 29 -184 0 -185 0 -27 -28 c-27 -27 -28 -31 -30 -147 l-1 -120 26 -1 c15
-1 43 -2 62 -3 l35 -1 1 -72 c1 -117 -35 -153 -150 -148 -91 5 -123 45 -120
150 1 33 5 310 9 615 4 305 8 603 9 662 1 59 4 109 6 111 13 12 91 47 104 47
25 0 61 -20 77 -43 10 -17 14 -59 14 -173 1 -218 5 -222 229 -219 l129 2 29
32 28 31 0 395 c0 272 -4 402 -11 419 -25 54 -32 55 -554 54 -264 0 -491 -3
-504 -7z"/>
<path d="M7273 2850 c-20 -12 -34 -30 -38 -51 -4 -17 -7 -548 -7 -1179 0
-1084 1 -1149 18 -1175 9 -15 28 -31 41 -36 14 -5 188 -9 389 -9 398 0 424 3
444 55 16 42 13 271 -5 304 -21 42 -55 50 -218 50 -214 0 -217 2 -217 219 0
159 2 170 38 197 27 20 51 22 245 24 40 1 54 6 78 30 l29 29 0 152 c0 216 -2
218 -205 221 -116 1 -129 3 -153 24 l-27 23 -3 311 -3 310 29 32 29 33 149 2
c82 1 157 2 167 3 10 0 32 14 48 30 l29 29 0 156 c0 95 -4 165 -11 180 -24 52
-43 54 -445 54 -345 1 -373 0 -401 -18z"/>
<path d="M8494 2863 c-12 -2 -32 -15 -45 -29 l-24 -26 -1 -1161 c-1 -639 2
-1172 7 -1184 18 -48 50 -57 206 -57 l145 -1 29 33 29 32 0 395 0 395 48 0 48
0 53 -187 c29 -104 77 -278 108 -388 67 -244 66 -241 102 -263 24 -15 51 -18
159 -17 88 0 138 5 155 14 27 14 47 50 47 83 0 12 -37 148 -81 302 -45 155
-88 306 -96 336 -8 30 -21 75 -29 99 -8 24 -13 45 -11 47 2 3 32 7 67 9 67 5
95 21 111 62 5 13 9 342 9 732 2 787 5 748 -63 770 -30 9 -921 13 -973 4z
m523 -445 c17 -19 18 -45 20 -358 l2 -338 -53 -21 c-58 -24 -86 -20 -121 19
-18 20 -19 38 -20 343 -1 177 1 329 3 338 2 9 25 25 50 36 53 22 87 16 119
-19z"/>
</g>
</svg>
